<svg xmlns="http://www.w3.org/2000/svg" version="1.1" xmlns:xlink="http://www.w3.org/1999/xlink" viewBox="0 0 700 700" style="overflow: hidden; display: block;" width="700" height="700"><defs><linearGradient id="two-59" x1="350" y1="-350" x2="350" y2="350" spreadMethod="pad" gradientUnits="userSpaceOnUse"><stop offset="0%" stop-color="hsl(105, 69%, 40%)" stop-opacity="1"></stop><stop offset="100%" stop-color="hsl(105, 69%, 60%)" stop-opacity="1"></stop></linearGradient></defs><g id="two-0" transform="matrix(1 0 0 1 0 0)" opacity="1"><path transform="matrix(1 0 0 1 350 350)" id="two-629" d="M 277.459061 85.584786 C 279.82674 117.025395 283.238485 154.985767 264.34038 180.22422 C 245.089094 205.934346 200.76557 200.237617 175.59268 220.186256 C 150.513542 240.060601 146.202869 284.945465 116.629421 297.166919 C 87.298306 309.288227 52.497211 278.48817 21.310995 284.375476 C -15.298829 291.286648 -40.515513 344.33869 -77.409065 339.151271 C -112.103931 334.272997 -122.519855 282.26351 -152.441596 264.036587 C -181.53475 246.3144 -223.64527 253.276229 -250.804471 232.71254 C -277.57725 212.441431 -305.0945 181.295563 -306.824559 147.758919 C -308.935766 106.833833 -256.860672 77.916854 -249.493253 37.605057 C -244.917716 12.569408 -252.062616 -14.381168 -258.599684 -38.977631 C -268.499525 -76.226913 -316.766977 -110.060146 -304.208869 -146.49927 C -292.946939 -179.177351 -244.58951 -184.195142 -212.585788 -197.250786 C -185.596057 -208.261015 -153.806408 -208.308287 -127.427596 -220.71107 C -103.214326 -232.09566 -81.76794 -250.326425 -60.980176 -267.171608 C -30.405538 -291.9475 -12.86505 -343.28829 26.125305 -348.617974 C 60.007539 -353.249418 91.986326 -322.907175 118.036547 -300.752218 C 142.783684 -279.705496 151.072751 -241.529677 176.937376 -221.872453 C 203.602681 -201.60671 255.753621 -214.672685 271.548455 -185.138603 C 288.895495 -152.702118 250.296639 -112.987516 247.413395 -76.316926 C 245.435618 -51.162543 247.713803 -24.847967 252.099364 -0.000001 C 257.219226 29.008413 275.247042 56.211192 277.459061 85.584786 Z " fill="url(#two-59)" stroke="undefined" stroke-width="1" stroke-opacity="1" fill-opacity="1" visibility="visible" stroke-linecap="butt" stroke-linejoin="miter" stroke-miterlimit="4"></path></g></svg>